<svg width="174" height="174" viewBox="0 0 174 174" fill="none" xmlns="http://www.w3.org/2000/svg">
<circle cx="87" cy="87" r="87" fill="#F8E7EB"/>
<rect x="118" y="118" width="56" height="56" rx="28" fill="#B71234"/>
<path d="M137 156C136.45 156 135.979 155.804 135.588 155.413C135.196 155.021 135 154.55 135 154V142C135 141.45 135.196 140.979 135.588 140.588C135.979 140.196 136.45 140 137 140H140.15L142 138H148V140H142.875L141.05 142H137V154H153V145H155V154C155 154.55 154.804 155.021 154.413 155.413C154.021 155.804 153.55 156 153 156H137ZM153 142V140H151V138H153V136H155V138H157V140H155V142H153ZM145 152.5C146.25 152.5 147.312 152.062 148.188 151.188C149.062 150.312 149.5 149.25 149.5 148C149.5 146.75 149.062 145.688 148.188 144.812C147.312 143.938 146.25 143.5 145 143.5C143.75 143.5 142.688 143.938 141.812 144.812C140.938 145.688 140.5 146.75 140.5 148C140.5 149.25 140.938 150.312 141.812 151.188C142.688 152.062 143.75 152.5 145 152.5ZM145 150.5C144.3 150.5 143.708 150.258 143.225 149.775C142.742 149.292 142.5 148.7 142.5 148C142.5 147.3 142.742 146.708 143.225 146.225C143.708 145.742 144.3 145.5 145 145.5C145.7 145.5 146.292 145.742 146.775 146.225C147.258 146.708 147.5 147.3 147.5 148C147.5 148.7 147.258 149.292 146.775 149.775C146.292 150.258 145.7 150.5 145 150.5Z" fill="#F8F8F8"/>
<path fill-rule="evenodd" clip-rule="evenodd" d="M87 89.9C93.9218 89.9 100.217 91.9126 104.848 94.7488C107.159 96.164 109.135 97.8344 110.562 99.6498C111.966 101.433 113 103.568 113 105.85C113 108.301 111.813 110.232 110.102 111.609C108.485 112.914 106.35 113.779 104.082 114.382C99.5233 115.591 93.4393 116 87 116C80.5607 116 74.4767 115.594 69.918 114.382C67.6502 113.779 65.5153 112.914 63.8976 111.609C62.1844 110.229 61 108.301 61 105.85C61 103.568 62.0342 101.433 63.4382 99.6469C64.8653 97.8344 66.8384 96.1669 69.1524 94.7459C73.7833 91.9155 80.0811 89.9 87 89.9ZM87 95.7C81.1558 95.7 75.898 97.411 72.1627 99.6991C70.2936 100.842 68.8838 102.083 67.9738 103.243C67.0378 104.432 66.7778 105.331 66.7778 105.85C66.7778 106.204 66.8847 106.578 67.5144 107.085C68.2338 107.665 69.4847 108.266 71.3971 108.773C75.2047 109.788 80.6762 110.2 87 110.2C93.3267 110.2 98.7953 109.785 102.6 108.773C104.515 108.266 105.766 107.665 106.486 107.085C107.115 106.578 107.222 106.204 107.222 105.85C107.222 105.328 106.962 104.432 106.029 103.243C105.116 102.083 103.706 100.842 101.837 99.6991C98.102 97.4081 92.8442 95.7 87 95.7ZM87 58C90.8309 58 94.5049 59.5277 97.2138 62.247C99.9226 64.9662 101.444 68.6544 101.444 72.5C101.444 76.3456 99.9226 80.0338 97.2138 82.753C94.5049 85.4723 90.8309 87 87 87C83.1691 87 79.4951 85.4723 76.7862 82.753C74.0774 80.0338 72.5556 76.3456 72.5556 72.5C72.5556 68.6544 74.0774 64.9662 76.7862 62.247C79.4951 59.5277 83.1691 58 87 58ZM87 63.8C85.8619 63.8 84.7349 64.025 83.6834 64.4622C82.6319 64.8995 81.6765 65.5403 80.8717 66.3482C80.067 67.156 79.4286 68.1151 78.993 69.1707C78.5575 70.2262 78.3333 71.3575 78.3333 72.5C78.3333 73.6425 78.5575 74.7738 78.993 75.8293C79.4286 76.8849 80.067 77.844 80.8717 78.6518C81.6765 79.4597 82.6319 80.1005 83.6834 80.5378C84.7349 80.975 85.8619 81.2 87 81.2C89.2985 81.2 91.5029 80.2834 93.1283 78.6518C94.7536 77.0203 95.6667 74.8074 95.6667 72.5C95.6667 70.1926 94.7536 67.9797 93.1283 66.3482C91.5029 64.7166 89.2985 63.8 87 63.8Z" fill="#DE92A2"/>
</svg>
